<svg width="31" height="30" viewBox="0 0 31 30" fill="none" xmlns="http://www.w3.org/2000/svg">
<g clip-path="url(#clip0_294_1857)">
<path d="M21.4833 10.2666L16.5583 15.1083C16.027 14.8524 15.4224 14.7925 14.8513 14.9392C14.2801 15.086 13.7792 15.4299 13.4371 15.9102C13.095 16.3905 12.9337 16.9763 12.9817 17.564C13.0297 18.1518 13.2839 18.7036 13.6994 19.1221C14.1149 19.5405 14.6649 19.7986 15.2523 19.8508C15.8397 19.9029 16.4266 19.7458 16.9093 19.4071C17.3921 19.0683 17.7395 18.5699 17.8903 17.9998C18.0411 17.4297 17.9855 16.8247 17.7333 16.2916L22.6667 11.4499L21.4833 10.2666Z" fill="white"/>
<path d="M15.5 3.54151C12.8772 3.53851 10.3084 4.28613 8.0969 5.69607C5.88539 7.10602 4.12355 9.1194 3.01947 11.4984C1.9154 13.8774 1.51519 16.5227 1.86613 19.1219C2.21707 21.7211 3.3045 24.1655 4.99997 26.1665L5.24997 26.4582H25.75L26 26.1665C27.6954 24.1655 28.7829 21.7211 29.1338 19.1219C29.4848 16.5227 29.0845 13.8774 27.9805 11.4984C26.8764 9.1194 25.1146 7.10602 22.903 5.69607C20.6915 4.28613 18.1227 3.53851 15.5 3.54151ZM24.95 24.7915H6.04997C4.5547 22.9204 3.65226 20.6455 3.45831 18.2582H6.33331V16.5915H3.45831C3.59724 13.9453 4.60814 11.4195 6.33331 9.40818L8.37497 11.4498L9.54997 10.2748L7.52497 8.22485C9.51069 6.46892 12.0219 5.41989 14.6666 5.24151V8.15818H16.3333V5.24985C19.2545 5.4617 21.9988 6.72953 24.0537 8.81662C26.1086 10.9037 27.3336 13.6673 27.5 16.5915H24.6V18.2582H27.5416C27.3477 20.6455 26.4452 22.9204 24.95 24.7915Z" fill="white"/>
</g>
<defs>
<clipPath id="clip0_294_1857">
<rect width="30" height="30" fill="white" transform="translate(0.5)"/>
</clipPath>
</defs>
</svg>
