<svg width="31" height="30" viewBox="0 0 31 30" fill="none" xmlns="http://www.w3.org/2000/svg">
<g clip-path="url(#clip0_294_1760)">
<path d="M21.4833 10.2667L16.5583 15.1084C16.027 14.8525 15.4224 14.7926 14.8513 14.9394C14.2801 15.0861 13.7792 15.43 13.4371 15.9103C13.095 16.3906 12.9337 16.9764 12.9817 17.5642C13.0297 18.1519 13.2839 18.7038 13.6994 19.1222C14.1149 19.5407 14.6649 19.7988 15.2523 19.8509C15.8397 19.9031 16.4266 19.7459 16.9093 19.4072C17.3921 19.0685 17.7395 18.57 17.8903 17.9999C18.0411 17.4298 17.9855 16.8248 17.7333 16.2917L22.6667 11.4501L21.4833 10.2667Z" fill="#C32033"/>
<path d="M15.5 3.54163C12.8772 3.53863 10.3084 4.28625 8.0969 5.6962C5.88539 7.10614 4.12355 9.11952 3.01947 11.4985C1.9154 13.8776 1.51519 16.5229 1.86613 19.122C2.21707 21.7212 3.3045 24.1656 4.99997 26.1666L5.24997 26.4583H25.75L26 26.1666C27.6954 24.1656 28.7829 21.7212 29.1338 19.122C29.4848 16.5229 29.0845 13.8776 27.9805 11.4985C26.8764 9.11952 25.1146 7.10614 22.903 5.6962C20.6915 4.28625 18.1227 3.53863 15.5 3.54163ZM24.95 24.7916H6.04997C4.5547 22.9206 3.65226 20.6456 3.45831 18.2583H6.33331V16.5916H3.45831C3.59724 13.9454 4.60814 11.4196 6.33331 9.4083L8.37497 11.45L9.54997 10.275L7.52497 8.22497C9.51069 6.46904 12.0219 5.42001 14.6666 5.24163V8.1583H16.3333V5.24997C19.2545 5.46182 21.9988 6.72965 24.0537 8.81674C26.1086 10.9038 27.3336 13.6675 27.5 16.5916H24.6V18.2583H27.5416C27.3477 20.6456 26.4452 22.9206 24.95 24.7916Z" fill="#C32033"/>
</g>
<defs>
<clipPath id="clip0_294_1760">
<rect width="30" height="30" fill="white" transform="translate(0.5)"/>
</clipPath>
</defs>
</svg>
