<svg width="31" height="30" viewBox="0 0 31 30" fill="none" xmlns="http://www.w3.org/2000/svg">
<g clip-path="url(#clip0_294_790)">
<rect x="3.35" y="3.3" width="20.3" height="22.4" rx="2.7" stroke="#C32033" stroke-width="1.4"/>
<path d="M13.5 13.4167C14.6966 13.4167 15.6667 12.4467 15.6667 11.25C15.6667 10.0534 14.6966 9.08337 13.5 9.08337C12.3034 9.08337 11.3333 10.0534 11.3333 11.25C11.3333 12.4467 12.3034 13.4167 13.5 13.4167Z" stroke="#C32033" stroke-width="1.3"/>
<path d="M17.8333 17.4792C17.8333 18.8253 17.8333 19.9167 13.5 19.9167C9.16667 19.9167 9.16667 18.8253 9.16667 17.4792C9.16667 16.1332 11.1069 15.0417 13.5 15.0417C15.8931 15.0417 17.8333 16.1332 17.8333 17.4792Z" stroke="#C32033" stroke-width="1.3"/>
<path d="M27.6267 5.79701C27.5189 5.79194 27.4111 5.80878 27.3099 5.84653C27.2087 5.88428 27.1163 5.94215 27.0381 6.01664C26.9599 6.09113 26.8977 6.1807 26.8551 6.27994C26.8125 6.37917 26.7905 6.486 26.7904 6.59399L26.7882 7.46201C26.7883 7.5675 26.8302 7.66866 26.9048 7.74325C26.9794 7.81784 27.0805 7.85976 27.186 7.85979L27.983 7.85909C28.0354 7.85921 28.0873 7.84898 28.1358 7.82898C28.1842 7.80898 28.2282 7.7796 28.2653 7.74255C28.3024 7.70548 28.3317 7.66147 28.3517 7.61302C28.3717 7.56458 28.382 7.51266 28.3818 7.46025L28.3839 6.61404C28.3843 6.1853 28.0555 5.81636 27.6267 5.79701ZM26.7879 9.22091L26.7766 21.9078C26.7765 21.9846 26.7961 22.0602 26.8336 22.1273L27.4146 23.2957C27.4313 23.3264 27.456 23.3521 27.4861 23.37C27.5162 23.3879 27.5506 23.3974 27.5856 23.3974C27.6206 23.3974 27.6549 23.3879 27.685 23.37C27.7151 23.3521 27.7398 23.3264 27.7565 23.2957L28.3368 22.128C28.3743 22.0609 28.394 21.9853 28.3938 21.9085L28.3818 9.22091C28.3812 9.10301 28.3341 8.99012 28.2507 8.90676C28.1674 8.82339 28.0545 8.77627 27.9366 8.77565L27.2349 8.77389C27.1164 8.77406 27.0028 8.82121 26.919 8.905C26.8352 8.9888 26.7881 9.10241 26.7879 9.22091Z" fill="#C32033"/>
</g>
<defs>
<clipPath id="clip0_294_790">
<rect width="30" height="30" fill="white" transform="translate(0.5)"/>
</clipPath>
</defs>
</svg>
