<svg width="31" height="30" viewBox="0 0 31 30" fill="none" xmlns="http://www.w3.org/2000/svg">
<g clip-path="url(#clip0_294_1770)">
<rect x="3.35005" y="3.3" width="20.3" height="22.4" rx="2.7" stroke="white" stroke-width="1.4"/>
<path d="M13.4999 13.4167C14.6965 13.4167 15.6666 12.4467 15.6666 11.25C15.6666 10.0534 14.6965 9.08337 13.4999 9.08337C12.3033 9.08337 11.3333 10.0534 11.3333 11.25C11.3333 12.4467 12.3033 13.4167 13.4999 13.4167Z" stroke="white" stroke-width="1.3"/>
<path d="M17.8333 17.4792C17.8333 18.8253 17.8333 19.9167 13.5 19.9167C9.16663 19.9167 9.16663 18.8253 9.16663 17.4792C9.16663 16.1332 11.1069 15.0417 13.5 15.0417C15.893 15.0417 17.8333 16.1332 17.8333 17.4792Z" stroke="white" stroke-width="1.3"/>
<path d="M27.6267 5.79701C27.5189 5.79194 27.4111 5.80878 27.3099 5.84653C27.2088 5.88428 27.1163 5.94215 27.0381 6.01664C26.96 6.09113 26.8977 6.1807 26.8551 6.27994C26.8125 6.37917 26.7905 6.486 26.7904 6.59399L26.7883 7.46201C26.7883 7.5675 26.8302 7.66866 26.9048 7.74325C26.9794 7.81784 27.0806 7.85976 27.1861 7.85979L27.983 7.85909C28.0354 7.85921 28.0874 7.84898 28.1358 7.82898C28.1842 7.80898 28.2283 7.7796 28.2653 7.74255C28.3024 7.70548 28.3318 7.66147 28.3518 7.61302C28.3718 7.56458 28.382 7.51266 28.3819 7.46025L28.384 6.61404C28.3843 6.1853 28.0555 5.81636 27.6267 5.79701ZM26.7879 9.22091L26.7767 21.9078C26.7765 21.9846 26.7961 22.0602 26.8336 22.1273L27.4147 23.2957C27.4314 23.3264 27.4561 23.3521 27.4861 23.37C27.5162 23.3879 27.5506 23.3974 27.5856 23.3974C27.6206 23.3974 27.655 23.3879 27.6851 23.37C27.7151 23.3521 27.7398 23.3264 27.7565 23.2957L28.3369 22.128C28.3744 22.0609 28.394 21.9853 28.3938 21.9085L28.3819 9.22091C28.3812 9.10301 28.3341 8.99012 28.2508 8.90676C28.1674 8.82339 28.0545 8.77627 27.9366 8.77565L27.2349 8.77389C27.1164 8.77406 27.0028 8.82121 26.919 8.905C26.8352 8.9888 26.7881 9.10241 26.7879 9.22091Z" fill="white"/>
</g>
<defs>
<clipPath id="clip0_294_1770">
<rect width="30" height="30" fill="white" transform="translate(0.5)"/>
</clipPath>
</defs>
</svg>
