<svg width="20" height="26" viewBox="0 0 20 26" fill="none" xmlns="http://www.w3.org/2000/svg">
<path d="M13.4666 2.2334V3.9334C13.4666 5.53593 13.4666 6.3372 13.9652 6.83473C14.4616 7.3334 15.2629 7.3334 16.8666 7.3334H18.5666" stroke="#C32033" stroke-width="1.5" stroke-linecap="round" stroke-linejoin="round"/>
<path d="M5.53333 11.867H14.6M5.53333 15.267H14.6M5.53333 18.667H10.2593M1 17.5337V8.46699C1 5.26193 1 3.65826 1.9962 2.66319C2.99127 1.66699 4.59493 1.66699 7.8 1.66699H12.5283C12.9907 1.66699 13.223 1.66699 13.4315 1.75313C13.6389 1.83926 13.8033 2.00246 14.1308 2.33113L18.4692 6.66953C18.7979 6.99819 18.9611 7.16139 19.0472 7.36993C19.1333 7.57733 19.1333 7.80966 19.1333 8.27206V17.5337C19.1333 20.7387 19.1333 22.3424 18.1371 23.3375C17.1421 24.3337 15.5384 24.3337 12.3333 24.3337H7.8C4.59493 24.3337 2.99127 24.3337 1.9962 23.3375C1 22.3424 1 20.7387 1 17.5337Z" stroke="#C32033" stroke-width="1.5" stroke-linecap="round" stroke-linejoin="round"/>
</svg>
