<svg width="20" height="26" viewBox="0 0 20 26" fill="none" xmlns="http://www.w3.org/2000/svg">
<path d="M13.4666 2.23328V3.93328C13.4666 5.53581 13.4666 6.33708 13.9652 6.83461C14.4616 7.33328 15.2629 7.33328 16.8666 7.33328H18.5666" stroke="white" stroke-width="1.5" stroke-linecap="round" stroke-linejoin="round"/>
<path d="M5.53333 11.8666H14.6M5.53333 15.2666H14.6M5.53333 18.6666H10.2593M1 17.5333V8.46663C1 5.26156 1 3.65789 1.9962 2.66283C2.99127 1.66663 4.59493 1.66663 7.8 1.66663H12.5283C12.9907 1.66663 13.223 1.66663 13.4315 1.75276C13.6389 1.83889 13.8033 2.00209 14.1308 2.33076L18.4692 6.66916C18.7979 6.99783 18.9611 7.16103 19.0472 7.36956C19.1333 7.57696 19.1333 7.80929 19.1333 8.27169V17.5333C19.1333 20.7384 19.1333 22.342 18.1371 23.3371C17.1421 24.3333 15.5384 24.3333 12.3333 24.3333H7.8C4.59493 24.3333 2.99127 24.3333 1.9962 23.3371C1 22.342 1 20.7384 1 17.5333Z" stroke="white" stroke-width="1.5" stroke-linecap="round" stroke-linejoin="round"/>
</svg>
