<svg width="29" height="28" viewBox="0 0 29 28" fill="none" xmlns="http://www.w3.org/2000/svg">
<path d="M21.5 12.25V22.3125C21.5 22.5998 21.4434 22.8842 21.3335 23.1496C21.2236 23.415 21.0624 23.6562 20.8593 23.8593C20.6562 24.0624 20.415 24.2236 20.1496 24.3335C19.8842 24.4434 19.5998 24.5 19.3125 24.5H6.1875C5.60734 24.5 5.05094 24.2695 4.6407 23.8593C4.23047 23.4491 4 22.8927 4 22.3125V9.1875C4 8.60734 4.23047 8.05094 4.6407 7.6407C5.05094 7.23047 5.60734 7 6.1875 7H15.3466" stroke="white" stroke-width="1.5" stroke-linecap="round" stroke-linejoin="round"/>
<path d="M25.653 2.91213C25.5731 2.82432 25.4762 2.75363 25.3682 2.70432C25.2602 2.65501 25.1433 2.62812 25.0246 2.62526C24.9059 2.62239 24.7879 2.64362 24.6776 2.68767C24.5674 2.73171 24.4672 2.79765 24.3831 2.8815L23.7066 3.5547C23.6247 3.63674 23.5786 3.74798 23.5786 3.86396C23.5786 3.97994 23.6247 4.09118 23.7066 4.17322L24.3268 4.79228C24.3675 4.83312 24.4158 4.86553 24.469 4.88765C24.5222 4.90976 24.5793 4.92114 24.6369 4.92114C24.6945 4.92114 24.7516 4.90976 24.8048 4.88765C24.858 4.86553 24.9063 4.83312 24.947 4.79228L25.6065 4.13603C25.9401 3.80298 25.9713 3.26048 25.653 2.91213ZM22.3389 4.92189L12.4667 14.7766C12.4069 14.8362 12.3634 14.9102 12.3404 14.9915L11.8838 16.3516C11.8728 16.3885 11.872 16.4277 11.8815 16.465C11.891 16.5023 11.9104 16.5363 11.9376 16.5635C11.9648 16.5908 11.9988 16.6101 12.0362 16.6196C12.0735 16.6291 12.1126 16.6283 12.1495 16.6174L13.5085 16.1607C13.5898 16.1378 13.6638 16.0942 13.7234 16.0344L23.5781 6.16111C23.6693 6.06896 23.7204 5.94457 23.7204 5.81494C23.7204 5.68531 23.6693 5.56091 23.5781 5.46877L23.034 4.92189C22.9417 4.82989 22.8167 4.77822 22.6865 4.77822C22.5562 4.77822 22.4312 4.82989 22.3389 4.92189Z" fill="white"/>
</svg>
