<?xml version="1.0" encoding="UTF-8"?>
<svg id="Layer_1" data-name="Layer 1" xmlns="http://www.w3.org/2000/svg" viewBox="0 0 176 32">
  <defs>
    <style>
      .cls-1 {
        fill: #bf203d;
        stroke-width: 0px;
      }
    </style>
  </defs>
  <path class="cls-1" d="M9.31,27.99l2.61,4.01h-4.11v-2.28l1.5-1.73ZM39.22,22.57c-1.52,0-2.79,1.11-2.79,3.04s1.23,2.98,2.73,2.98c.92,0,1.9-.4,2.67-1.27l2.59,2.31v-8.14l-2.65,2.35c-.71-.85-1.61-1.27-2.56-1.27M25.97,24.09c0-.92-.65-1.46-1.69-1.46h-1.23v2.92h1.23c1.04,0,1.69-.54,1.69-1.46M31.6,25.61c0-4.05,3.17-6.99,7.38-6.99,2.07,0,3.97.62,5.45,2.02V0H10.75C4.81,0,0,4.81,0,10.75v21.25h3v-13.12h4.8v5.23l3.8-5.23h5.53l-4.9,5.69,4.93,7.43h1.06v-13.12h6.17c3.92,0,6.36,1.98,6.36,5.17s-2.46,5.25-6.36,5.25h-1.36v2.7h12.93c-2.62-1.06-4.38-3.42-4.38-6.39M44.43,30.6c-.61.61-1.31,1.07-2.08,1.4h2.08v-1.4Z"/>
  <path class="cls-1" d="M50.7,7h.9v.97h-.9v-.97ZM49.29,7.97h.9v-.97h-.9v.97ZM55.77,11.69c0,.77-.37,1.22-1.17,1.24-.64-.02-1.07-.31-1.13-.86v-3.17h-.89v3.01c0,.67-.38,1.03-1.12,1.03h-1.97c-.82,0-1.2-.46-1.2-1.25v-2.79h-.89v2.83c0,1.29.77,2.08,2.09,2.08h1.97c.72,0,1.26-.22,1.61-.67.33.41.84.64,1.48.66h0s.04,0,.06,0c.02,0,.03,0,.05,0h.09v-.02c1.19-.08,1.91-.84,1.91-2.06v-2.83h-.9v2.79ZM55.61,15.69h.9v-.98h-.9v.98ZM54.2,15.69h.89v-.98h-.89v.98ZM86.07,6.98h.9v4.75c0,1.18-.72,1.93-1.85,2.05v.02h-23.52c-.09,1.18-.89,1.89-1.88,1.89h-.03v-.8c.58-.02.98-.61.98-1.09h-1.05c-.81,0-1.94-.6-1.94-2.38s.75-2.53,1.94-2.53h1.99v4.03h21.77v-1.56c0-.77-.41-1.14-1.25-1.14h-2.75v-1.54c0-1.03.78-1.7,1.96-1.7h1.86v.87h-1.86c-.67,0-1.1.36-1.1.85v.63h1.89c1.3,0,2.09.71,2.07,1.99v1.6h.59c.84,0,1.27-.46,1.27-1.25v-4.71ZM60.72,9.71h-1.06c-.84,0-1.04,1.07-1.04,1.72s.28,1.51,1.04,1.51h1.06v-3.23ZM87.99,13.81h.9v-6.82h-.9v6.82ZM94.99,12.94c-.79,0-1.22-.9-1.22-1.78,0-.46.21-1.44,1.04-1.44.27,0,.49.12.64.37h.99v-.02c-.3-.78-.84-1.16-1.66-1.16-1.57,0-1.93,1.59-1.93,2.3,0,.8.21,1.28.52,1.74-1.3.23-1.67,1.67-1.67,2.13v.63h.86v-.63c0-.42.35-1.26,1.26-1.26h2.99l-.28-.87h-1.54ZM94.3,7.96h.88v-.98h-.88v.98ZM121.93,15.69h.9v-.98h-.9v.98ZM128.84,9.13c1.35,0,1.92,1.2,1.92,2.16,0,.85-.44,2.52-2.19,2.52h-4.72c-.64-.05-1.14-.27-1.46-.67-.32.42-.82.64-1.46.66h0s-.11.01-.11.01h-21.12v-.02c-1.16-.1-1.88-.86-1.88-2.06v-4.75h.9v4.71c0,.79.42,1.25,1.25,1.25h20.86c.67,0,1.07-.39,1.07-1.03v-3.01h.9v3.04c0,.64.46,1,1.2,1h1.57v-3.98h.87v1.94c.49-.89,1.26-1.76,2.4-1.76M128.58,12.94c.95,0,1.27-.83,1.27-1.68,0-.6-.3-1.32-1.04-1.32-1.36,0-2.05,1.63-2.38,2.57v.43h2.15M131.75,13.81h.9v-6.82h-.9v6.82ZM131.96,5.81c0-.24.05-.55.33-.55.14,0,.18.05.25.16h.54c-.16-.39-.35-.63-.8-.63-.77,0-.83.79-.83,1.04v.1h-.45v.49h2.15v-.49h-1.19v-.12ZM138.49,7.96h.89v-.98h-.89v.98ZM137.09,7.96h.89v-.98h-.89v.98ZM162.72,9.34c1.31,0,2.06.71,2.06,1.99v2.47h-27.37c-.81,0-1.94-.6-1.94-2.38s.75-2.53,1.94-2.53h1.99v4.03h24.55v-1.56c.01-.77-.41-1.14-1.24-1.14h-2.74v-1.54c0-1.03.77-1.7,1.94-1.7h1.85v.87h-1.85c-.66,0-1.08.36-1.08.85v.63h1.88M138.5,9.71h-1.06c-.84,0-1.04,1.07-1.04,1.72s.28,1.51,1.04,1.51h1.06v-3.23ZM172.48,6.56h.89v-.98h-.89v.98ZM173.18,7.97h.9v-.97h-.9v.97ZM175.1,8.9v2.79c0,1.03-.19,1.25-.75,1.25h-.95v-4.03h-.9v4.03h-1.71v-3.98h-.87v3.98h-1.59c-.71,0-1.19-.34-1.19-.94v-3.09h-.9v4.1c0,.28.03.81-.15,1.22-.16.4-.53.66-.88.68v.8c1.23.04,1.93-1.01,1.93-2.13v-.07c.28.18.64.28,1.06.3v.02h6.18c1.01,0,1.63-.58,1.63-1.68v-3.23h-.9ZM171.76,7.97h.9v-.97h-.9v.97ZM53.39,18.27h-1.12l-4.01,4.35v-4.35h-.86v7.18h.86v-1.66l1.69-1.82,2.53,3.48h1.03l-2.96-4.12,2.84-3.05ZM58.82,22.8c0,1.08-.8,1.93-1.83,1.93-.95,0-1.52-.63-1.52-1.69v-3.18h-.83v3.23c0,1.48.88,2.44,2.24,2.44.77,0,1.46-.31,1.93-.86v.77h.84v-5.59h-.84v2.94ZM67.36,24.17l-1.47-4.32h-.78l-1.46,4.32-1.49-4.32h-.89l1.97,5.59h.81l1.45-4.24,1.44,4.24h.81l1.97-5.59h-.89l-1.49,4.32ZM73,19.77c1.48,0,2.3.78,2.3,2.2v3.48h-.84v-.81c-.42.49-1.09.89-1.93.89-1.2,0-1.98-.68-1.98-1.75,0-1.13.8-1.78,2.2-1.78.56,0,1.12.03,1.71.11v-.13c0-.93-.51-1.41-1.51-1.41-.57,0-1.15.21-1.59.56l-.14.11-.44-.66.12-.09c.58-.46,1.33-.72,2.11-.72M74.47,22.87c-.55-.07-1.04-.11-1.6-.11-1.48,0-1.48.75-1.48.99,0,.81.71.98,1.31.98,1.02,0,1.78-.92,1.78-1.74v-.13M77.52,19.38h.87v-1.35h-.87v1.35ZM77.53,25.44h.84v-5.59h-.84v5.59ZM83.97,24.52c-.23.13-.63.22-.93.22-.54,0-.89-.37-.89-.95v-3.14h1.95v-.8h-1.95v-1.45h-.78l-.05,1.45h-1.08v.8h1.08v3.23c0,1,.65,1.65,1.65,1.65.38,0,.94-.1,1.29-.33l.1-.06-.2-.72-.18.1ZM92.7,18.27c1.82,0,2.91.89,2.91,2.39s-1.12,2.41-2.93,2.41h-1.76v2.37h-.86v-7.17h2.64M90.92,22.26h1.76c1.34,0,2.08-.57,2.08-1.61s-.73-1.58-2.07-1.58h-1.77v3.2ZM99.17,19.77c1.49,0,2.3.78,2.3,2.2v3.48h-.84v-.81c-.42.49-1.09.89-1.93.89-1.2,0-1.98-.68-1.98-1.75,0-1.13.8-1.78,2.2-1.78.56,0,1.12.03,1.71.11v-.13c0-.93-.51-1.41-1.51-1.41-.57,0-1.15.21-1.59.56l-.14.11-.44-.66.12-.09c.58-.46,1.33-.72,2.11-.72M100.64,22.87c-.55-.07-1.04-.11-1.6-.11-1.48,0-1.48.75-1.48.99,0,.81.71.98,1.31.98,1.02,0,1.78-.92,1.78-1.74v-.13M103.71,25.44h.84v-5.59h-.84v5.59ZM103.7,19.38h.87v-1.35h-.87v1.35ZM109.65,19.77c-.77,0-1.46.31-1.93.86v-.77h-.84v5.59h.84v-2.94c0-1.08.8-1.93,1.83-1.93.95,0,1.52.63,1.52,1.69v3.18h.84v-3.23c0-1.48-.89-2.44-2.25-2.44M117.4,24.52c-.23.13-.63.22-.93.22-.54,0-.89-.37-.89-.95v-3.14h1.95v-.8h-1.95v-1.45h-.78l-.05,1.45h-1.08v.8h1.08v3.23c0,1,.65,1.65,1.65,1.65.38,0,.94-.1,1.29-.33l.1-.06-.2-.72-.18.1ZM128.95,23.86c-.56.57-1.29.86-2.1.86-1.59,0-2.79-1.24-2.79-2.88s1.2-2.86,2.79-2.86c.84,0,1.5.26,2.08.83l.11.11.56-.58-.11-.11c-.72-.71-1.59-1.05-2.65-1.05-2.08,0-3.65,1.58-3.65,3.68s1.57,3.68,3.65,3.68c1.04,0,1.99-.39,2.67-1.11l.11-.11-.57-.57-.11.11ZM133.91,19.77c1.68,0,2.9,1.21,2.9,2.87s-1.22,2.89-2.9,2.89-2.88-1.21-2.88-2.88,1.21-2.88,2.88-2.88M133.91,20.56c-1.2,0-2.04.86-2.04,2.08s.86,2.08,2.05,2.08,2.05-.86,2.05-2.08-.85-2.08-2.06-2.08M145.38,19.77c-.95,0-1.67.54-2.05,1.16-.33-.74-.99-1.16-1.85-1.16-.71,0-1.37.31-1.82.83v-.74h-.84v5.59h.84v-2.96c0-1.07.74-1.91,1.69-1.91.87,0,1.37.59,1.37,1.62v3.24h.84v-2.96c0-1.07.74-1.91,1.69-1.91.87,0,1.37.59,1.37,1.62v3.24h.84v-3.3c0-1.46-.8-2.37-2.08-2.37M152.62,19.77c1.54,0,2.7,1.24,2.7,2.89s-1.14,2.87-2.7,2.87c-.85,0-1.6-.34-2.09-.93v2.52h-.84v-7.26h.84v.84c.5-.59,1.25-.93,2.09-.93M154.5,22.66c0-1.23-.8-2.09-1.94-2.09s-2.02.86-2.02,2.08.83,2.08,2.02,2.08,1.94-.85,1.94-2.07M159.31,19.77c1.48,0,2.3.78,2.3,2.2v3.48h-.84v-.81c-.42.49-1.09.89-1.93.89-1.2,0-1.98-.68-1.98-1.75,0-1.13.8-1.78,2.2-1.78.56,0,1.12.03,1.71.11v-.13c0-.93-.51-1.41-1.51-1.41-.57,0-1.15.21-1.59.56l-.14.11-.44-.66.12-.09c.58-.46,1.33-.72,2.11-.72M160.78,22.87c-.55-.07-1.04-.11-1.6-.11-1.48,0-1.48.75-1.48.99,0,.81.71.98,1.31.98,1.02,0,1.78-.92,1.78-1.74v-.13M166.62,19.77c-.77,0-1.46.31-1.94.86v-.77h-.84v5.59h.84v-2.94c0-1.08.8-1.93,1.83-1.93.95,0,1.52.63,1.52,1.69v3.18h.84v-3.23c0-1.48-.88-2.44-2.25-2.44M174.92,19.85l-1.94,4.43-1.94-4.43h-.92l2.4,5.41-.16.38c-.27.57-.55.79-1,.79-.23,0-.5-.06-.69-.17l-.15-.08-.29.67.12.07c.23.13.62.28,1.02.28.85,0,1.38-.39,1.79-1.31l2.67-6.04h-.92Z"/>
</svg>