<svg width="56" height="50" viewBox="0 0 56 50" fill="none" xmlns="http://www.w3.org/2000/svg">
<path d="M55.891 36.8769C55.9259 36.9006 55.9593 36.9174 55.9914 36.9285V27.5903C55.9817 27.5931 55.9733 27.5945 55.9635 27.6001C55.8631 27.6489 55.7696 27.7173 55.6859 27.7912C55.1921 28.232 54.7038 28.6798 54.2086 29.1193C53.9449 29.3536 53.6757 29.5852 53.4009 29.807C53.2 29.9688 52.981 29.9591 52.7815 29.8014C52.7285 29.7596 52.6811 29.7107 52.6308 29.6647C52.1593 29.2281 51.6222 28.9002 51.0029 28.7273C50.5369 28.5961 50.0584 28.5515 49.573 28.5975C48.9048 28.6617 48.2924 28.8654 47.772 29.2992C47.2015 29.7749 46.8095 30.3664 46.6239 31.0932C46.4858 31.6317 46.4426 32.1743 46.4858 32.7268C46.5486 33.5345 46.7843 34.2738 47.3214 34.8988C47.8125 35.4694 48.436 35.8251 49.1684 35.9478C50.4728 36.1655 51.6236 35.7944 52.6308 34.9518C52.7062 34.889 52.7801 34.8249 52.8568 34.7649C53.0563 34.61 53.2223 34.6058 53.4358 34.7481C53.486 34.7816 53.5348 34.8179 53.5794 34.8569C54.1751 35.3871 54.768 35.9213 55.3651 36.45C55.5353 36.5993 55.7054 36.75 55.891 36.8769Z" fill="#C32033"/>
<path d="M5.195 39.7843C5.21174 39.6504 5.20755 39.5137 5.20755 39.3784C5.20755 34.6214 5.20755 29.8644 5.20755 25.1074C5.20755 24.9414 5.20616 24.7768 5.21174 24.6108C5.21453 24.5285 5.22429 24.4462 5.24243 24.3653C5.28428 24.1742 5.40565 24.0626 5.60095 24.043C5.72789 24.0305 5.85624 24.0277 5.98458 24.0277C7.43678 24.0263 8.89038 24.0263 10.3426 24.0277C10.4486 24.0277 10.5532 24.0277 10.6579 24.036C10.9369 24.0584 11.054 24.1546 11.0973 24.4294C11.1238 24.5996 11.1266 24.774 11.1266 24.947C11.1294 26.4145 11.128 27.8821 11.1308 29.3496C11.1308 29.4989 11.1391 29.6524 11.1712 29.7974C11.2187 30.0109 11.3791 30.0569 11.5367 29.9049C11.6386 29.8072 11.725 29.69 11.8087 29.5742C12.1617 29.086 12.5077 28.5935 12.862 28.1081C13.6251 27.0618 14.3909 26.0184 15.1554 24.9749C15.2977 24.781 15.4414 24.5871 15.5878 24.396C15.7734 24.1546 16.0119 24.0179 16.3244 24.0291C16.4221 24.0333 16.5197 24.0277 16.6174 24.0277C18.2286 24.0277 19.8384 24.0277 21.4497 24.0277C21.585 24.0277 21.7203 24.0277 21.8556 24.0333C21.9226 24.036 21.9909 24.043 22.0565 24.0598C22.2574 24.1128 22.3188 24.2286 22.2267 24.4127C22.1709 24.5257 22.0956 24.6331 22.0133 24.7294C21.1414 25.7463 20.2653 26.7591 19.392 27.7747C18.608 28.687 17.8268 29.6035 17.0428 30.5173C16.6494 30.9748 16.6327 31.1311 16.9633 31.6333C17.3972 32.2931 17.8366 32.9502 18.276 33.6072C18.8368 34.4456 19.4018 35.2798 19.9584 36.121C20.6322 37.1366 21.3004 38.1564 21.9714 39.1733C22.1151 39.3909 22.2574 39.61 22.4039 39.8248H23.9928C23.997 39.808 24.0011 39.7913 24.0025 39.7732C24.0235 39.6253 24.029 39.4732 24.029 39.324C24.0304 34.5447 24.0304 29.7654 24.0304 24.986C24.0304 24.8131 24.0263 24.6387 24.0444 24.4671C24.0709 24.2007 24.2188 24.0626 24.4824 24.0374C24.5801 24.0277 24.6777 24.0291 24.7754 24.0291C27.0032 24.0291 29.231 24.0221 31.4589 24.0333C31.9987 24.036 32.54 24.0863 33.0799 24.1323C34.0243 24.2146 34.9311 24.4518 35.8029 24.8228C36.4949 25.1186 37.124 25.5175 37.6653 26.0379C38.3712 26.7173 38.8873 27.5166 39.1663 28.4666C39.3267 29.0135 39.4202 29.5659 39.4397 30.1322C39.4662 30.919 39.3881 31.6933 39.1398 32.448C38.9278 33.0925 38.6251 33.6867 38.2121 34.2196C37.4309 35.2254 36.3986 35.8825 35.2073 36.2926C34.0522 36.6902 32.8623 36.8883 31.6374 36.866C31.2385 36.859 30.8395 36.859 30.4405 36.8702C30.0499 36.8813 29.9174 37.0264 29.909 37.4128C29.9062 37.5188 29.9076 37.6235 29.9076 37.7295C29.9076 38.3168 29.9062 38.9041 29.9076 39.4914C29.9076 39.6267 29.9146 39.7355 29.9286 39.8248H45.0156C44.8733 39.7174 44.724 39.6169 44.5706 39.5249C43.6011 38.9473 42.7808 38.2052 42.1126 37.2956C41.3383 36.241 40.8306 35.0734 40.6297 33.7746C40.493 32.8902 40.4776 32.0044 40.5892 31.1199C40.719 30.0792 41.0468 29.0999 41.5476 28.175C42.0345 27.2753 42.6748 26.501 43.4546 25.8482C43.8745 25.498 44.3293 25.1772 44.8063 24.9107C45.8261 24.3416 46.924 23.9844 48.086 23.824C49.1002 23.6845 50.1088 23.6747 51.123 23.8101C51.8498 23.9077 52.5626 24.0612 53.249 24.3151C54.1208 24.6387 54.9355 25.0725 55.6777 25.6389C55.767 25.7073 55.8604 25.7742 55.9636 25.8175C55.972 25.8203 55.979 25.8217 55.986 25.8245V0H13.9501C6.70301 0 0.828613 5.87439 0.828613 13.1215V39.8248H5.18802C5.18942 39.8108 5.1936 39.7997 5.195 39.7843Z" fill="#C32033"/>
<path d="M15.9144 39.7939C15.8796 39.6962 15.8238 39.6042 15.7666 39.5163C15.0467 38.4059 14.3283 37.2954 13.6029 36.1892C13.4676 35.9827 13.3225 35.779 13.1593 35.5949C13.017 35.4331 12.8677 35.4414 12.7045 35.5823C12.6417 35.6368 12.5845 35.6953 12.5301 35.7581C12.1605 36.1836 11.7964 36.6133 11.4225 37.0345C11.2216 37.2605 11.1309 37.5186 11.1323 37.8171C11.1351 38.4114 11.1309 39.0043 11.1337 39.5986C11.1337 39.6739 11.1435 39.7492 11.1588 39.8246H15.9242C15.92 39.8148 15.9186 39.8037 15.9144 39.7939Z" fill="#C32033"/>
<path d="M55.7714 38.9962C55.4505 39.2208 55.1324 39.4468 54.8144 39.6742C54.7488 39.7202 54.686 39.7705 54.6274 39.8249H55.9904V38.8721C55.9136 38.8944 55.8411 38.9474 55.7714 38.9962Z" fill="#C32033"/>
<path d="M29.9174 31.7214C29.9244 32.0994 30.0583 32.2306 30.4363 32.2557C30.4587 32.2571 30.481 32.2585 30.5033 32.2585C30.8562 32.2585 31.2106 32.2682 31.5635 32.2529C31.7881 32.2431 32.0155 32.218 32.2317 32.158C32.8246 31.9962 33.2696 31.66 33.4524 31.0406C33.5375 30.7546 33.5654 30.4617 33.5207 30.1701C33.4552 29.7349 33.2864 29.3415 32.9181 29.0723C32.6558 28.8798 32.3643 28.7151 32.035 28.697C31.4728 28.6649 30.9093 28.6691 30.3471 28.6607C30.3024 28.6593 30.2578 28.6747 30.2145 28.6845C30.0402 28.7263 29.9453 28.8421 29.923 29.0151C29.9132 29.0974 29.9132 29.1797 29.9132 29.2634C29.9118 29.654 29.9132 30.0446 29.9132 30.4366H29.9146C29.916 30.8635 29.9104 31.2931 29.9174 31.7214Z" fill="#C32033"/>
<path d="M3.78738 45.6836H3.18892L1.53304 47.3381V45.6836H1.09082V49.0191H1.53304V47.8626L2.07849 47.3311L3.26564 49.0191H3.84876L2.38818 47.0354L3.78738 45.6836Z" fill="#C32033"/>
<path d="M6.09094 47.8976C6.09094 48.1041 6.06862 48.2617 6.02398 48.3691C5.97934 48.4779 5.90262 48.563 5.7952 48.6258C5.68779 48.6886 5.572 48.7207 5.44924 48.7207C5.32648 48.7207 5.22325 48.69 5.13955 48.6286C5.05585 48.5672 5.00144 48.4821 4.97633 48.3747C4.95959 48.3008 4.95122 48.1557 4.95122 47.9422V46.603H4.54248V48.0999C4.54248 48.2742 4.55085 48.4012 4.56759 48.4821C4.59131 48.6021 4.63455 48.7025 4.69314 48.7862C4.75313 48.8685 4.8452 48.9369 4.96796 48.9927C5.09211 49.0471 5.22464 49.075 5.36693 49.075C5.69057 49.075 5.94586 48.9383 6.13279 48.6662V49.0206H6.49968V46.6044H6.09094V47.8976Z" fill="#C32033"/>
<path d="M9.73703 47.9994L9.59892 48.4654L9.47895 48.0036L9.11764 46.603H8.69635L8.31132 48.0176C8.2346 48.3245 8.19275 48.4905 8.18577 48.5156L8.04209 47.9966L7.65706 46.603H7.23438L7.97373 49.0192H8.402L8.89165 47.161L8.98511 47.5726L9.37014 49.0192H9.79562L10.5503 46.603H10.1527L9.73703 47.9994Z" fill="#C32033"/>
<path d="M13.2345 48.0061V47.4607C13.2345 47.2793 13.2275 47.1524 13.2135 47.0826C13.1898 46.971 13.1466 46.8776 13.0866 46.8036C13.0252 46.7297 12.9317 46.6697 12.802 46.6209C12.6737 46.5721 12.5049 46.5483 12.2998 46.5483C12.092 46.5483 11.9092 46.5762 11.7516 46.6334C11.5939 46.6906 11.474 46.7715 11.3903 46.8776C11.3066 46.9836 11.2466 47.1217 11.2103 47.2933L11.6107 47.3477C11.6539 47.1761 11.7223 47.0575 11.8143 46.9892C11.9064 46.9222 12.0487 46.8873 12.2412 46.8873C12.4477 46.8873 12.6025 46.9334 12.7072 47.0254C12.7839 47.0938 12.8229 47.211 12.8229 47.3784C12.8229 47.3937 12.8215 47.4286 12.8201 47.4858C12.6639 47.5402 12.4212 47.5876 12.0906 47.6267C11.9287 47.6462 11.8074 47.6671 11.7265 47.6881C11.6176 47.7188 11.5186 47.7634 11.4321 47.822C11.3442 47.8806 11.2745 47.9601 11.2201 48.0577C11.1657 48.1554 11.1392 48.2642 11.1392 48.3814C11.1392 48.5837 11.2103 48.7483 11.3526 48.878C11.4949 49.0077 11.6986 49.0719 11.965 49.0719C12.1254 49.0719 12.2761 49.0454 12.417 48.9924C12.5579 48.9394 12.703 48.8487 12.855 48.719C12.8676 48.8334 12.8941 48.9324 12.9373 49.0175H13.3656C13.314 48.9254 13.2791 48.8278 13.2624 48.7273C13.2442 48.6269 13.2345 48.387 13.2345 48.0061ZM12.8215 47.9559C12.8215 48.1359 12.7992 48.2726 12.756 48.3646C12.6988 48.4846 12.6081 48.5795 12.4853 48.6478C12.3626 48.7176 12.2217 48.7511 12.0641 48.7511C11.905 48.7511 11.7837 48.7148 11.7013 48.6423C11.619 48.5697 11.5772 48.479 11.5772 48.3688C11.5772 48.2977 11.5967 48.2321 11.6344 48.1749C11.6721 48.1163 11.7265 48.0717 11.7962 48.0424C11.866 48.0117 11.9845 47.9852 12.1533 47.9601C12.4505 47.9182 12.6737 47.8666 12.8215 47.8052V47.9559Z" fill="#C32033"/>
<path d="M14.667 45.6836H14.2583V46.1551H14.667V45.6836Z" fill="#C32033"/>
<path d="M14.667 46.603H14.2583V49.0192H14.667V46.603Z" fill="#C32033"/>
<path d="M16.3915 48.6689C16.3301 48.6689 16.2841 48.6591 16.252 48.6396C16.2199 48.62 16.1962 48.5935 16.1808 48.56C16.1669 48.5266 16.1599 48.4512 16.1599 48.3354V46.9223H16.5714V46.6042H16.1599V45.7603L15.7526 46.0058V46.6042H15.4526V46.9223H15.7526V48.3117C15.7526 48.5573 15.7693 48.7191 15.8028 48.7944C15.8363 48.8711 15.8935 48.9325 15.9758 48.9799C16.0581 49.0274 16.1725 49.0511 16.3217 49.0511C16.4124 49.0511 16.5156 49.0385 16.6314 49.0148L16.5728 48.6535C16.4975 48.6633 16.4375 48.6689 16.3915 48.6689Z" fill="#C32033"/>
<path d="M21.2684 45.8719C21.1582 45.7952 21.0201 45.7436 20.8569 45.7157C20.7397 45.6948 20.5709 45.6836 20.3491 45.6836H19.0908V49.0177H19.5316V47.6617H20.3868C20.8583 47.6617 21.1847 47.5641 21.3647 47.3674C21.5446 47.1707 21.6353 46.9307 21.6353 46.6476C21.6353 46.4829 21.6018 46.3309 21.5335 46.1928C21.4679 46.0561 21.3786 45.9487 21.2684 45.8719ZM21.002 47.1107C20.882 47.2167 20.6797 47.2697 20.3952 47.2697H19.533V46.0784H20.3854C20.5849 46.0784 20.723 46.0882 20.7969 46.1077C20.9127 46.1398 21.0048 46.2053 21.0759 46.3044C21.1471 46.4034 21.1819 46.5234 21.1819 46.6629C21.1819 46.8554 21.122 47.0047 21.002 47.1107Z" fill="#C32033"/>
<path d="M24.4894 48.0061V47.4607C24.4894 47.2793 24.4824 47.1524 24.4684 47.0826C24.4447 46.971 24.4015 46.8776 24.3415 46.8036C24.2801 46.7297 24.1866 46.6697 24.0569 46.6209C23.9286 46.5721 23.7598 46.5483 23.5547 46.5483C23.3468 46.5483 23.1641 46.5762 23.0065 46.6334C22.8488 46.6906 22.7288 46.7715 22.6451 46.8776C22.5614 46.9836 22.5015 47.1217 22.4652 47.2933L22.8656 47.3477C22.9088 47.1761 22.9772 47.0575 23.0692 46.9892C23.1613 46.9222 23.3036 46.8873 23.4961 46.8873C23.7026 46.8873 23.8574 46.9334 23.962 47.0254C24.0388 47.0938 24.0778 47.211 24.0778 47.3784C24.0778 47.3937 24.0764 47.4286 24.075 47.4858C23.9188 47.5402 23.6761 47.5876 23.3454 47.6267C23.1836 47.6462 23.0623 47.6671 22.9813 47.6881C22.8725 47.7188 22.7735 47.7634 22.687 47.822C22.5991 47.8806 22.5294 47.9601 22.475 48.0577C22.4205 48.1554 22.394 48.2642 22.394 48.3814C22.394 48.5837 22.4652 48.7483 22.6075 48.878C22.7498 49.0077 22.9534 49.0719 23.2199 49.0719C23.3803 49.0719 23.531 49.0454 23.6719 48.9924C23.8128 48.9394 23.9579 48.8487 24.1099 48.719C24.1225 48.8334 24.149 48.9324 24.1922 49.0175H24.6205C24.5689 48.9254 24.534 48.8278 24.5173 48.7273C24.4977 48.6269 24.4894 48.387 24.4894 48.0061ZM24.075 47.9559C24.075 48.1359 24.0527 48.2726 24.0095 48.3646C23.9523 48.4846 23.8616 48.5795 23.7388 48.6478C23.6161 48.7176 23.4752 48.7511 23.3175 48.7511C23.1585 48.7511 23.0371 48.7148 22.9548 48.6423C22.8725 48.5697 22.8307 48.479 22.8307 48.3688C22.8307 48.2977 22.8502 48.2321 22.8879 48.1749C22.9255 48.1163 22.9799 48.0717 23.0497 48.0424C23.1195 48.0117 23.238 47.9852 23.4068 47.9601C23.704 47.9182 23.9272 47.8666 24.075 47.8052V47.9559Z" fill="#C32033"/>
<path d="M25.9209 46.603H25.5122V49.0192H25.9209V46.603Z" fill="#C32033"/>
<path d="M25.9209 45.6836H25.5122V46.1551H25.9209V45.6836Z" fill="#C32033"/>
<path d="M28.7443 46.8329C28.6829 46.7478 28.5922 46.6795 28.4708 46.6265C28.3481 46.5734 28.2155 46.5483 28.0691 46.5483C27.7343 46.5483 27.4776 46.6809 27.3004 46.9459V46.6027H26.9321V49.0189H27.3409V47.6992C27.3409 47.3895 27.4036 47.1803 27.5306 47.0687C27.6575 46.9585 27.8082 46.9027 27.9826 46.9027C28.0914 46.9027 28.1862 46.9278 28.2686 46.9766C28.3495 47.0254 28.4067 47.0924 28.4373 47.1747C28.4694 47.257 28.4848 47.3826 28.4848 47.5486V49.0175H28.8935V47.5318C28.8935 47.3421 28.8865 47.2096 28.8712 47.1342C28.8475 47.0185 28.8056 46.918 28.7443 46.8329Z" fill="#C32033"/>
<path d="M30.6234 48.6689C30.562 48.6689 30.516 48.6591 30.4839 48.6396C30.4518 48.62 30.4281 48.5935 30.4128 48.56C30.3988 48.5266 30.3918 48.4512 30.3918 48.3354V46.9223H30.8034V46.6042H30.3918V45.7603L29.9845 46.0058V46.6042H29.6846V46.9223H29.9845V48.3117C29.9845 48.5573 30.0012 48.7191 30.0347 48.7944C30.0682 48.8711 30.1254 48.9325 30.2077 48.9799C30.29 49.0274 30.4044 49.0511 30.5537 49.0511C30.6443 49.0511 30.7476 49.0385 30.8634 49.0148L30.8048 48.6535C30.728 48.6633 30.6681 48.6689 30.6234 48.6689Z" fill="#C32033"/>
<path d="M35.3538 48.4849C35.1822 48.6272 34.973 48.6983 34.7261 48.6983C34.5224 48.6983 34.3341 48.6453 34.1597 48.5421C33.9853 48.4375 33.857 48.2798 33.7747 48.0678C33.6924 47.8558 33.6505 47.6088 33.6505 47.3257C33.6505 47.1052 33.6854 46.8918 33.7551 46.6853C33.8249 46.4789 33.9462 46.3129 34.1178 46.1901C34.2894 46.0674 34.5042 46.006 34.7609 46.006C34.9841 46.006 35.1683 46.0618 35.3161 46.172C35.4626 46.2822 35.5756 46.4593 35.6523 46.7021L36.0862 46.6002C35.9969 46.292 35.8379 46.0534 35.6105 45.8832C35.3831 45.713 35.1027 45.6279 34.7693 45.6279C34.475 45.6279 34.2057 45.6949 33.9602 45.8288C33.7147 45.9627 33.5263 46.1594 33.3938 46.4175C33.2613 46.6756 33.1943 46.9783 33.1943 47.3257C33.1943 47.6437 33.2529 47.9422 33.3701 48.2199C33.4873 48.4975 33.6589 48.7095 33.8835 48.856C34.1081 49.0025 34.401 49.075 34.7609 49.075C35.1083 49.075 35.4012 48.9801 35.6426 48.789C35.8825 48.5993 36.0499 48.3231 36.142 47.9604L35.7012 47.8488C35.6412 48.1306 35.5254 48.3412 35.3538 48.4849Z" fill="#C32033"/>
<path d="M38.0014 46.5483C37.7029 46.5483 37.449 46.6376 37.2411 46.8162C36.9928 47.031 36.8687 47.363 36.8687 47.8094C36.8687 48.2168 36.9733 48.5293 37.1811 48.7469C37.389 48.9631 37.6624 49.0719 38.0014 49.0719C38.212 49.0719 38.406 49.0231 38.5845 48.924C38.7631 48.825 38.8984 48.6869 38.9919 48.5083C39.0853 48.3298 39.1314 48.0856 39.1314 47.7746C39.1314 47.3909 39.0253 47.0896 38.8147 46.872C38.6054 46.6572 38.3334 46.5483 38.0014 46.5483ZM38.5092 48.5041C38.3739 48.659 38.2051 48.7357 38.0014 48.7357C37.7963 48.7357 37.6261 48.659 37.4922 48.5055C37.3569 48.3521 37.2899 48.1205 37.2899 47.8108C37.2899 47.5011 37.3569 47.271 37.4922 47.1175C37.6275 46.9641 37.7963 46.8873 38.0014 46.8873C38.2037 46.8873 38.3711 46.9641 38.5078 47.1189C38.6431 47.2724 38.7115 47.4997 38.7115 47.7983C38.7115 48.1135 38.6431 48.3493 38.5092 48.5041Z" fill="#C32033"/>
<path d="M42.5253 46.5483C42.2184 46.5483 41.9701 46.6892 41.779 46.971C41.7316 46.8371 41.6506 46.7339 41.5363 46.6599C41.4219 46.586 41.2754 46.5483 41.0968 46.5483C40.9364 46.5483 40.7927 46.5846 40.6672 46.6558C40.5416 46.7283 40.4398 46.8232 40.3644 46.9417V46.6027H39.9976V49.0189H40.4063V47.7662C40.4063 47.5458 40.4286 47.3784 40.4719 47.2612C40.5151 47.144 40.5863 47.0561 40.6839 46.9947C40.7816 46.9348 40.8876 46.9041 41.0034 46.9041C41.1554 46.9041 41.2642 46.9501 41.3312 47.0408C41.3981 47.1315 41.4316 47.2682 41.4316 47.4495V49.0189H41.8404V47.6155C41.8404 47.3672 41.8962 47.1859 42.0092 47.0729C42.1208 46.9599 42.2617 46.9027 42.4319 46.9027C42.5253 46.9027 42.6076 46.925 42.6774 46.9682C42.7471 47.0129 42.7946 47.0701 42.8225 47.1426C42.849 47.2152 42.8629 47.3323 42.8629 47.4969V49.0189H43.2703V47.3602C43.2703 47.084 43.2061 46.8804 43.0763 46.7478C42.9494 46.6153 42.7653 46.5483 42.5253 46.5483Z" fill="#C32033"/>
<path d="M45.8847 46.7074C45.7271 46.6014 45.5458 46.5483 45.3393 46.5483C45.1817 46.5483 45.0477 46.579 44.9361 46.6404C44.8259 46.7018 44.7255 46.7939 44.6376 46.9166V46.6027H44.2651V49.9438H44.6739V48.7678C44.7436 48.8557 44.8329 48.9282 44.9417 48.9868C45.0505 49.044 45.1719 49.0733 45.3086 49.0733C45.4955 49.0733 45.6727 49.0203 45.8415 48.9157C46.0103 48.8096 46.14 48.659 46.2279 48.4609C46.3172 48.2628 46.3604 48.041 46.3604 47.7927C46.3604 47.5625 46.32 47.3505 46.2405 47.1566C46.161 46.9641 46.0424 46.8134 45.8847 46.7074ZM45.7494 48.5055C45.6197 48.659 45.4635 48.7357 45.2821 48.7357C45.1035 48.7357 44.9501 48.6618 44.8245 48.5125C44.699 48.3646 44.6362 48.1345 44.6362 47.8234C44.6362 47.5123 44.7032 47.2751 44.8371 47.1133C44.971 46.9501 45.1259 46.8692 45.3002 46.8692C45.476 46.8692 45.6267 46.9459 45.7536 47.0994C45.8806 47.2528 45.9433 47.483 45.9433 47.7913C45.9433 48.1135 45.8792 48.3521 45.7494 48.5055Z" fill="#C32033"/>
<path d="M49.1993 48.0061V47.4607C49.1993 47.2793 49.1923 47.1524 49.1784 47.0826C49.1547 46.971 49.1114 46.8776 49.0514 46.8036C48.9901 46.7297 48.8966 46.6697 48.7669 46.6209C48.6385 46.5721 48.4697 46.5483 48.2647 46.5483C48.0568 46.5483 47.8741 46.5762 47.7164 46.6334C47.5588 46.6906 47.4388 46.7715 47.3551 46.8776C47.2714 46.9836 47.2114 47.1217 47.1752 47.2933L47.5755 47.3477C47.6188 47.1761 47.6871 47.0575 47.7792 46.9892C47.8713 46.9222 48.0136 46.8873 48.2061 46.8873C48.4125 46.8873 48.5674 46.9334 48.672 47.0254C48.7487 47.0938 48.7878 47.211 48.7878 47.3784C48.7878 47.3937 48.7864 47.4286 48.785 47.4858C48.6287 47.5402 48.386 47.5876 48.0554 47.6267C47.8936 47.6462 47.7722 47.6671 47.6913 47.6881C47.5825 47.7188 47.4834 47.7634 47.397 47.822C47.3091 47.8806 47.2393 47.9601 47.1849 48.0577C47.1305 48.1554 47.104 48.2642 47.104 48.3814C47.104 48.5837 47.1751 48.7483 47.3174 48.878C47.4597 49.0077 47.6634 49.0719 47.9299 49.0719C48.0903 49.0719 48.2409 49.0454 48.3818 48.9924C48.5227 48.9394 48.6678 48.8487 48.8199 48.719C48.8324 48.8334 48.8589 48.9324 48.9022 49.0175H49.3304C49.2788 48.9254 49.244 48.8278 49.2272 48.7273C49.2077 48.6269 49.1993 48.387 49.1993 48.0061ZM48.785 47.9559C48.785 48.1359 48.7627 48.2726 48.7194 48.3646C48.6622 48.4846 48.5716 48.5795 48.4488 48.6478C48.326 48.7176 48.1851 48.7511 48.0275 48.7511C47.8685 48.7511 47.7471 48.7148 47.6648 48.6423C47.5825 48.5697 47.5406 48.479 47.5406 48.3688C47.5406 48.2977 47.5602 48.2321 47.5978 48.1749C47.6355 48.1163 47.6899 48.0717 47.7597 48.0424C47.8294 48.0117 47.948 47.9852 48.1168 47.9601C48.4139 47.9182 48.6371 47.8666 48.785 47.8052V47.9559Z" fill="#C32033"/>
<path d="M52.0328 46.8329C51.9714 46.7478 51.8808 46.6795 51.7594 46.6265C51.6366 46.5734 51.5041 46.5483 51.3576 46.5483C51.0228 46.5483 50.7662 46.6809 50.589 46.9459V46.6027H50.2207V49.0189H50.6294V47.6992C50.6294 47.3895 50.6922 47.1803 50.8192 47.0687C50.9461 46.9585 51.0968 46.9027 51.2711 46.9027C51.38 46.9027 51.4748 46.9278 51.5571 46.9766C51.638 47.0254 51.6952 47.0924 51.7259 47.1747C51.758 47.257 51.7734 47.3826 51.7734 47.5486V49.0175H52.1821V47.5318C52.1821 47.3421 52.1751 47.2096 52.1598 47.1342C52.1361 47.0185 52.0942 46.918 52.0328 46.8329Z" fill="#C32033"/>
<path d="M54.2519 48.0106C54.1864 48.1892 54.1306 48.3733 54.0832 48.5616C54.0315 48.3663 53.9729 48.1794 53.9074 48.0022L53.4052 46.603H52.9644L53.8809 49.0234C53.8641 49.0666 53.8516 49.1001 53.8446 49.1238C53.7874 49.2856 53.7456 49.3875 53.7191 49.4279C53.6842 49.4823 53.6395 49.5256 53.5851 49.5549C53.5307 49.5856 53.4582 49.6009 53.3661 49.6009C53.2992 49.6009 53.221 49.5883 53.1318 49.5646L53.1778 49.9497C53.2754 49.9831 53.3633 49.9999 53.4414 49.9999C53.5712 49.9999 53.6842 49.9678 53.7776 49.905C53.8711 49.8422 53.9548 49.7432 54.0274 49.6079C54.0818 49.5074 54.1585 49.3247 54.2575 49.0596L55.1768 46.603H54.7681L54.2519 48.0106Z" fill="#C32033"/>
<path d="M2.13858 42.4429H1.68799V42.8209H2.13858V42.4429Z" fill="#C32033"/>
<path d="M2.79008 42.4429H2.34229V42.8209H2.79008V42.4429Z" fill="#C32033"/>
<path d="M4.46294 44.0542H4.01514V44.4323H4.46294V44.0542Z" fill="#C32033"/>
<path d="M5.11278 43.2059V42.4037H4.66917V43.2324C4.66917 43.3607 4.59663 43.4291 4.47805 43.4291H4.10698H4.09024H3.89075C3.68987 43.4291 3.57548 43.3035 3.57548 43.1096V42.4023H3.12768V43.231C3.12768 43.3593 3.05793 43.4277 2.94075 43.4277H1.62525C1.47459 43.4277 1.35602 43.3161 1.3323 43.2003C1.30301 43.0524 1.39787 42.9241 1.39787 42.9241C1.39787 42.9241 1.26673 42.8125 1.07841 42.6409C0.904032 42.8711 0.897057 43.0887 0.904032 43.2003C0.920772 43.5393 1.23884 43.8643 1.6406 43.8643H2.97562C3.22254 43.8643 3.36623 43.7694 3.45272 43.6509C3.542 43.7625 3.6829 43.8643 3.91586 43.8643H4.09024H4.10698H4.51711C5.07093 43.8671 5.11278 43.3928 5.11278 43.2059Z" fill="#C32033"/>
<path d="M5.1143 44.0542H4.6665V44.4323H5.1143V44.0542Z" fill="#C32033"/>
<path d="M18.5439 43.2327C18.5439 43.361 18.4714 43.4294 18.3528 43.4294H17.9817H17.965H17.4265C17.4698 43.3373 17.4963 43.2327 17.4963 43.1197C17.4963 42.7054 17.1977 42.3636 16.7206 42.3636H15.7539C15.8264 42.2548 15.9645 42.1599 16.2212 42.1599H16.7151V41.7358H16.1891C15.6395 41.7358 15.1861 42.1334 15.1861 42.8016H16.7192C16.9159 42.8016 17.0387 42.9467 17.0387 43.1211C17.0387 43.2885 16.8936 43.4238 16.729 43.4308H14.8918H14.8625H14.324H14.2947H13.7562H13.7269H13.1885H13.1592H12.6207H12.5914H12.0529H12.0236H11.4852H11.4559H10.9174H10.8881H10.3496H10.3203H9.78185H9.75255H9.21408H9.18479H8.64631H8.61702H8.07854H8.04925H7.51077H7.48148H7.03089V42.404H6.31664C5.84373 42.404 5.54102 42.7068 5.54102 43.1183C5.54102 43.5396 5.87582 43.8674 6.31664 43.8674H6.56356C6.48404 44.0516 6.24131 44.0488 6.17156 44.0488C6.06694 44.0488 5.96091 44.0264 5.88558 44.0027L5.99998 44.3947C6.05857 44.4115 6.15064 44.4282 6.23015 44.431C6.54542 44.4408 6.95974 44.3124 7.01973 43.8688H7.48008H7.50938H8.04785H8.07715H8.61562H8.64492H9.18339H9.21269H9.75116H9.78045H10.3189H10.3482H10.8867H10.916H11.4545H11.4838H12.0222H12.0515H12.59H12.6193H13.1578H13.1871H13.7255H13.7548H14.2933H14.3226H14.8611H14.8904H17.965H17.9817H18.3933C18.9457 43.8688 18.9889 43.3959 18.9889 43.2076V41.7358H18.5453V43.2327H18.5439ZM6.57053 43.4294H6.29153C6.09763 43.4294 5.98602 43.2815 5.98602 43.1169C5.98602 42.9662 6.09763 42.7974 6.29153 42.7974H6.57053V43.4294Z" fill="#C32033"/>
<path d="M19.9013 41.7358H19.4604V43.866H19.9013V41.7358Z" fill="#C32033"/>
<path d="M22.0816 41.4067H21.6338V41.7876H22.0816V41.4067Z" fill="#C32033"/>
<path d="M22.6466 43.8701H22.15C22.0412 43.9789 21.917 43.9915 21.811 43.9915C21.532 43.9915 21.3869 43.7808 21.3869 43.5939C21.3869 43.2256 21.7426 43.153 21.9756 43.153C22.1695 43.153 22.3774 43.1656 22.4652 43.1726V42.7485C22.3006 42.7359 21.9658 42.7094 21.758 42.7457V42.6969C21.758 42.5713 21.7915 42.5058 21.8724 42.503C21.9449 42.5002 21.9812 42.5365 21.9937 42.5978H22.4318C22.4025 42.2686 22.2211 42.0747 21.8724 42.0747C21.458 42.0747 21.3102 42.3942 21.3102 42.6997V42.8964C21.1135 43.0052 20.9419 43.287 20.9419 43.5869C20.9419 44.0277 21.2837 44.4323 21.8096 44.4323C22.263 44.4323 22.5392 44.163 22.6466 43.8701Z" fill="#C32033"/>
<path d="M32.8696 43.6372C32.9547 43.7558 33.0998 43.8674 33.3398 43.8674H33.5169H33.5337H35.3193C35.7308 43.8674 36.0851 43.5814 36.0851 43.1336C36.0851 42.6203 35.5913 42.3636 35.1868 42.3636C34.9789 42.3636 34.5855 42.4585 34.3316 42.7612L34.3609 42.478H33.9271V43.428H33.5323H33.5155H33.3119C33.1152 43.428 32.9966 43.3024 32.9966 43.1085V42.5031H32.553V43.1643C32.553 43.3513 32.4609 43.428 32.2893 43.428H31.9936H31.9643H31.4258H31.3965H30.858H30.8287H30.2903H30.261H29.7225H29.6932H29.1547H29.1254H28.587H28.5577H28.0192H27.9899H27.4514H27.4221H26.8836H26.8544H26.3159H26.2866H25.7481H25.7188H25.1803H25.151H24.6126H24.5833H24.0448H24.0155H23.763C23.6472 43.428 23.5761 43.3582 23.5761 43.2313V41.7358H23.1353V43.2062C23.1353 43.3931 23.1743 43.8674 23.7267 43.8674H24.0155H24.0448H24.5833H24.6126H25.151H25.1803H25.7188H25.7481H26.2866H26.3159H26.8544H26.8836H27.4221H27.4514H27.9899H28.0192H28.5577H28.587H29.1254H29.1547H29.6932H29.7225H30.261H30.2903H30.8287H30.858H31.3965H31.4258H31.9643H31.9936H32.4149C32.6185 43.8674 32.7901 43.7753 32.8696 43.6372ZM35.2133 42.7779C35.3514 42.7877 35.6276 42.8672 35.6276 43.1392C35.6276 43.301 35.4658 43.428 35.2858 43.428H34.3414C34.4014 43.1601 34.7097 42.7416 35.2133 42.7779Z" fill="#C32033"/>
<path d="M32.9952 44.0542H32.5474V44.4323H32.9952V44.0542Z" fill="#C32033"/>
<path d="M36.9984 41.7358H36.5576V43.866H36.9984V41.7358Z" fill="#C32033"/>
<path d="M37.074 41.447L36.9652 41.3479C36.9526 41.3912 36.8996 41.387 36.8996 41.387H36.7545V41.3117C36.7545 41.2628 36.7643 41.2224 36.8131 41.2224C36.8368 41.2224 36.8689 41.2391 36.8689 41.281H37.0335C37.021 41.1303 36.9484 41.0605 36.8131 41.0605C36.6555 41.0605 36.5927 41.1819 36.5927 41.3103V41.387H36.5034L36.4546 41.5516H36.8884C36.9484 41.5516 37.0405 41.5251 37.074 41.447Z" fill="#C32033"/>
<path d="M39.2574 41.6968H38.8096V42.0776H39.2574V41.6968Z" fill="#C32033"/>
<path d="M38.607 41.6968H38.1592V42.0776H38.607V41.6968Z" fill="#C32033"/>
<path d="M47.2881 43.8675H47.828H47.8573H48.4097H48.4264H50.2678C50.7156 43.8675 51.0435 43.5383 51.0435 43.1212C51.0435 42.7068 50.7449 42.3651 50.2678 42.3651H49.3039C49.3736 42.2562 49.5103 42.1614 49.7712 42.1614H50.2609V41.7373H49.7377C49.1881 41.7373 48.7347 42.1349 48.7347 42.8031H50.2664C50.4631 42.8031 50.5859 42.9482 50.5859 43.1226C50.5859 43.2941 50.4352 43.4322 50.2664 43.4322H48.425H48.4083H47.8559H47.828H47.2895H47.2602H46.7217H46.6924H46.154H46.1247H45.5862H45.5569H45.0184H44.9891H44.4506H44.4213H43.8829H43.8536H43.3151H43.2858H42.7473H42.718H42.1796H42.1503H41.6118H41.5825H41.044H41.0147H40.4763H40.447H39.9043H39.8778H39.6253C39.5095 43.4322 39.4384 43.3625 39.4384 43.2355V42.2158L38.9948 42.3246V42.4362C38.4451 42.439 38.0475 42.6231 38.0573 43.1435C38.0601 43.4322 38.3098 43.7085 38.6223 43.7252C38.8427 43.7378 38.9836 43.6261 39.0533 43.548C39.1231 43.7154 39.271 43.8703 39.5862 43.8703H39.8792H39.9057H40.4484H40.4777H41.0161H41.0454H41.5839H41.6132H42.1517H42.181H42.7194H42.7487H43.2872H43.3165H43.855H43.8843H44.4227H44.452H44.9905H45.0198H45.5583H45.5876H46.126H46.1553H46.6938H46.7231H47.2616H47.2881V43.8675ZM38.9808 43.0974C38.9808 43.3081 38.8594 43.4127 38.7144 43.4099C38.5274 43.4071 38.4646 43.2188 38.4674 43.1072C38.4772 42.8017 38.7534 42.7054 38.9808 42.7054V43.0974Z" fill="#C32033"/>
<path d="M55.2662 41.7358H54.8184V42.1167H55.2662V41.7358Z" fill="#C32033"/>
<path d="M54.9231 41.2168H54.5088V41.5683H54.9231V41.2168Z" fill="#C32033"/>
<path d="M54.6146 41.7358H54.1641V42.1167H54.6146V41.7358Z" fill="#C32033"/>
<path d="M55.4755 42.4067V43.2982C55.4727 43.4558 55.4267 43.6204 55.209 43.6204C55.0709 43.6204 54.9496 43.4948 54.9426 43.2786V42.5058H54.5018V43.2982C54.499 43.4558 54.4529 43.6204 54.2353 43.6204C54.0972 43.6204 53.9758 43.4948 53.9689 43.2786V42.5058H53.5253V43.2326C53.5253 43.3609 53.4527 43.4293 53.3341 43.4293H52.9631H52.9463H52.7399C52.546 43.4293 52.4302 43.3107 52.4246 43.1266V42.5044H51.9768V43.6357C51.974 43.9482 51.7271 44.0473 51.5695 44.0473C51.3783 44.0473 51.1914 43.9719 51.1914 43.9719L51.2639 44.3374C51.2639 44.3374 51.4258 44.4128 51.6294 44.4295C51.9977 44.4588 52.3688 44.2258 52.419 43.7655C52.5013 43.8241 52.6157 43.8673 52.7678 43.8673H52.9477H52.9645H53.3746C53.6508 43.8673 53.7987 43.7487 53.8782 43.6078C54.0163 43.8813 54.2032 43.9329 54.4278 43.9329C54.5952 43.9329 54.8394 43.8143 54.9007 43.6539C55.0389 43.845 55.177 43.9329 55.4002 43.9329C55.7949 43.9329 55.9163 43.6232 55.9163 43.2982V42.4067H55.4755Z" fill="#C32033"/>
</svg>
